<svg id="Capa_1" enable-background="new 0 0 512 512" height="512" viewBox="0 0 512 512" width="512" xmlns="http://www.w3.org/2000/svg"><g><path d="m434.69 158.084h-13.276c.334-3.085.501-6.197.501-9.329 0-47.28-38.465-85.745-85.746-85.745-14.747 0-28.945 3.71-41.511 10.684-17.782-43.778-60.779-73.694-109.507-73.694-65.168 0-118.187 53.019-118.187 118.188v40.588c-37.617 5.068-66.711 37.382-66.711 76.365 0 42.488 34.567 77.056 77.056 77.056h53.667v184.803c0 8.284 6.716 15 15 15h220.046c8.284 0 15-6.716 15-15v-184.804h53.668c42.489 0 77.056-34.567 77.056-77.056.001-42.489-34.567-77.056-77.056-77.056zm-83.667 323.916h-190.046v-192.337h65.984c8.284 0 15-6.716 15-15v-64.97h109.062zm-168.508-222.337 29.446-29.077v29.077zm252.175 22.533h-53.668v-87.503c0-8.284-6.716-15-15-15h-138.964c-3.943 0-7.824 1.551-10.636 4.327l-80.984 79.97c-2.823 2.79-4.46 6.703-4.46 10.673v7.533h-53.668c-25.947 0-47.056-21.109-47.056-47.056s21.109-47.057 47.056-47.057h4.655c8.284 0 15-6.716 15-15v-54.896c-.001-48.626 39.56-88.187 88.187-88.187 42.15 0 78.551 29.99 86.555 71.31 1.052 5.433 5.01 9.844 10.296 11.479 5.285 1.634 11.043.226 14.978-3.666 10.506-10.39 24.424-16.112 39.19-16.112 30.738 0 55.745 25.007 55.745 55.745 0 6.597-1.137 13.047-3.38 19.171-1.685 4.6-1.017 9.733 1.789 13.749 2.806 4.017 7.397 6.409 12.296 6.409h32.069c25.947 0 47.056 21.109 47.056 47.057.001 25.945-21.109 47.054-47.056 47.054z"/><path d="m268.253 320.135c-2.846-3.196-6.922-5.024-11.202-5.024s-8.356 1.828-11.202 5.024l-32.835 36.872c-5.509 6.187-4.96 15.668 1.227 21.178 2.859 2.546 6.421 3.798 9.97 3.798 4.131 0 8.244-1.697 11.208-5.024l6.633-7.449v41.49c0 8.284 6.716 15 15 15s15-6.716 15-15v-41.49l6.632 7.448c5.509 6.186 14.991 6.737 21.178 1.227s6.736-14.991 1.227-21.178z"/></g></svg>